<svg xmlns="http://www.w3.org/2000/svg" viewBox="0 0 512 512" role="img" aria-labelledby="title desc">
  <title id="title">Purrowl pet art</title>
  <desc id="desc">A brown owl-cat hybrid illustration for the Adopt Me pet Purrowl, with cat ears, owl wings, a striped tail, and wide golden eyes.</desc>
  <defs>
    <linearGradient id="bg" x1="0%" y1="0%" x2="100%" y2="100%">
      <stop offset="0%" stop-color="#fff3c9"/>
      <stop offset="100%" stop-color="#f6bf6e"/>
    </linearGradient>
    <linearGradient id="fur" x1="0%" y1="0%" x2="100%" y2="100%">
      <stop offset="0%" stop-color="#7e5435"/>
      <stop offset="100%" stop-color="#58361f"/>
    </linearGradient>
    <linearGradient id="belly" x1="0%" y1="0%" x2="100%" y2="100%">
      <stop offset="0%" stop-color="#f7e4bb"/>
      <stop offset="100%" stop-color="#e9c98f"/>
    </linearGradient>
    <linearGradient id="wing" x1="0%" y1="0%" x2="100%" y2="100%">
      <stop offset="0%" stop-color="#9f7447"/>
      <stop offset="100%" stop-color="#6f4728"/>
    </linearGradient>
    <linearGradient id="eye" x1="0%" y1="0%" x2="100%" y2="100%">
      <stop offset="0%" stop-color="#ffea87"/>
      <stop offset="100%" stop-color="#ffb947"/>
    </linearGradient>
    <filter id="shadow" x="-20%" y="-20%" width="140%" height="140%">
      <feDropShadow dx="0" dy="14" stdDeviation="16" flood-color="#8f5626" flood-opacity=".22"/>
    </filter>
  </defs>
  <rect width="512" height="512" rx="104" fill="url(#bg)"/>
  <circle cx="256" cy="222" r="170" fill="#ffffff" opacity=".2"/>
  <g filter="url(#shadow)">
    <path d="M148 256c-38 10-70 42-78 82 38 4 78-11 104-42 12-14 18-28 20-46-15-1-31 1-46 6Z" fill="url(#wing)"/>
    <path d="M364 256c38 10 70 42 78 82-38 4-78-11-104-42-12-14-18-28-20-46 15-1 31 1 46 6Z" fill="url(#wing)"/>
    <path d="M207 136 170 92l14 66Z" fill="url(#fur)"/>
    <path d="m305 136 37-44-14 66Z" fill="url(#fur)"/>
    <path d="M256 110c74 0 134 61 134 136v32c0 84-67 150-150 150h-8c-83 0-150-66-150-150v-32c0-75 60-136 134-136h40Z" fill="url(#fur)"/>
    <path d="M186 162c18 16 48 20 70 4-7-25-29-43-58-43-9 0-18 2-26 6 0 14 4 24 14 33Z" fill="#4d301b"/>
    <path d="M326 162c-18 16-48 20-70 4 7-25 29-43 58-43 9 0 18 2 26 6 0 14-4 24-14 33Z" fill="#4d301b"/>
    <ellipse cx="256" cy="298" rx="88" ry="98" fill="url(#belly)"/>
    <path d="M203 224c17-12 36-18 53-18s36 6 53 18c-12 7-28 11-53 11s-41-4-53-11Z" fill="#f4d7a1"/>
    <ellipse cx="200" cy="244" rx="44" ry="52" fill="#f6efdf"/>
    <ellipse cx="312" cy="244" rx="44" ry="52" fill="#f6efdf"/>
    <circle cx="200" cy="246" r="28" fill="url(#eye)"/>
    <circle cx="312" cy="246" r="28" fill="url(#eye)"/>
    <circle cx="200" cy="248" r="13" fill="#25180e"/>
    <circle cx="312" cy="248" r="13" fill="#25180e"/>
    <circle cx="193" cy="239" r="5" fill="#fff7d8"/>
    <circle cx="305" cy="239" r="5" fill="#fff7d8"/>
    <path d="M256 270 238 286h36Z" fill="#d3883b"/>
    <path d="M256 287c18 0 31 13 31 29 0 8-3 15-9 22l-22 21-22-21c-6-7-9-14-9-22 0-16 13-29 31-29Z" fill="#f29a57"/>
    <path d="M216 336c16 10 64 10 80 0" fill="none" stroke="#6a4326" stroke-linecap="round" stroke-width="10"/>
    <path d="M175 354c-4 23 2 43 18 60M337 354c4 23-2 43-18 60" fill="none" stroke="#6a4326" stroke-linecap="round" stroke-width="16"/>
    <path d="M274 364c28 8 46 28 54 60 6 25 22 40 46 46-9 7-25 11-42 7-21-4-38-18-47-39-10-23-17-47-11-74Z" fill="url(#fur)"/>
    <path d="M306 395c17 2 30 10 39 24M297 428c16 1 28 6 37 17" fill="none" stroke="#d5b07c" stroke-linecap="round" stroke-width="10"/>
    <path d="M212 190c-20-3-38 4-50 21M300 190c20-3 38 4 50 21" fill="none" stroke="#4a2d18" stroke-linecap="round" stroke-width="12"/>
    <path d="M162 276c-16-5-27-17-33-35M350 276c16-5 27-17 33-35" fill="none" stroke="#5b3920" stroke-linecap="round" stroke-width="10"/>
  </g>
</svg>
